<svg width="1280" height="360" viewBox="0 0 1280 360" fill="none" xmlns="http://www.w3.org/2000/svg" role="img" aria-labelledby="title desc">
<title id="title">Ward profile banner</title>
<desc id="desc">A dark minimalist banner showing a 3D data-center server room in black, white, and grey.</desc>
<rect width="1280" height="360" fill="#0D1117"/>
<rect x="40" y="40" width="1200" height="280" rx="18" fill="#111111" stroke="#30363D"/>
<path d="M80 108H300" stroke="#21262D" stroke-width="1"/>
<path d="M80 252H1200" stroke="#30363D" stroke-width="1"/>
<circle cx="105" cy="76" r="6" fill="#F0F6FC"/>
<circle cx="127" cy="76" r="6" fill="#8B949E"/>
<circle cx="149" cy="76" r="6" fill="#30363D"/>
<text x="80" y="286" fill="#8B949E" font-family="Consolas, Monaco, 'Courier New', monospace" font-size="16" letter-spacing="2">PROFILE / README</text>
<text x="80" y="150" fill="#F0F6FC" font-family="Inter, Arial, sans-serif" font-size="76" font-weight="700">Ward</text>
<path d="M420 96 L440 83 L440 233 L420 246 Z" fill="#0B0E13"/>
<path d="M360 96 L420 96 L440 83 L380 83 Z" fill="#232A35"/>
<rect x="360" y="96" width="60" height="150" rx="3" fill="#161B22" stroke="#30363D"/>
<rect x="368" y="102" width="44" height="5" rx="2" fill="#21262D"/>
<rect x="366" y="116" width="48" height="18" rx="2" fill="#0D1117" stroke="#21262D"/>
<rect x="373" y="123" width="4" height="4" rx="1" fill="#30363D"/>
<rect x="381" y="123" width="4" height="4" rx="1" fill="#30363D"/>
<rect x="390" y="122" width="16" height="6" rx="2" fill="#30363D"/>
<rect x="366" y="140" width="48" height="18" rx="2" fill="#0D1117" stroke="#21262D"/>
<rect x="373" y="147" width="4" height="4" rx="1" fill="#8B949E"/>
<rect x="381" y="147" width="4" height="4" rx="1" fill="#30363D"/>
<rect x="390" y="146" width="16" height="6" rx="2" fill="#30363D"/>
<rect x="366" y="164" width="48" height="18" rx="2" fill="#0D1117" stroke="#21262D"/>
<rect x="373" y="171" width="4" height="4" rx="1" fill="#F0F6FC"/>
<rect x="390" y="170" width="16" height="6" rx="2" fill="#30363D"/>
<rect x="366" y="188" width="48" height="18" rx="2" fill="#0D1117" stroke="#21262D"/>
<rect x="373" y="195" width="4" height="4" rx="1" fill="#8B949E"/>
<rect x="381" y="195" width="4" height="4" rx="1" fill="#8B949E"/>
<rect x="390" y="194" width="16" height="6" rx="2" fill="#30363D"/>
<rect x="366" y="212" width="48" height="18" rx="2" fill="#0D1117" stroke="#21262D"/>
<rect x="373" y="219" width="4" height="4" rx="1" fill="#F0F6FC"/>
<rect x="390" y="218" width="16" height="6" rx="2" fill="#30363D"/>
<path d="M516 96 L536 83 L536 233 L516 246 Z" fill="#0B0E13"/>
<path d="M456 96 L516 96 L536 83 L476 83 Z" fill="#232A35"/>
<rect x="456" y="96" width="60" height="150" rx="3" fill="#161B22" stroke="#30363D"/>
<rect x="464" y="102" width="44" height="5" rx="2" fill="#21262D"/>
<rect x="462" y="116" width="48" height="18" rx="2" fill="#0D1117" stroke="#21262D"/>
<rect x="469" y="123" width="4" height="4" rx="1" fill="#F0F6FC"/>
<rect x="477" y="123" width="4" height="4" rx="1" fill="#8B949E"/>
<rect x="486" y="122" width="16" height="6" rx="2" fill="#30363D"/>
<rect x="462" y="140" width="48" height="18" rx="2" fill="#0D1117" stroke="#21262D"/>
<rect x="469" y="147" width="4" height="4" rx="1" fill="#8B949E"/>
<rect x="477" y="147" width="4" height="4" rx="1" fill="#8B949E"/>
<rect x="486" y="146" width="16" height="6" rx="2" fill="#30363D"/>
<rect x="462" y="164" width="48" height="18" rx="2" fill="#0D1117" stroke="#21262D"/>
<rect x="469" y="171" width="4" height="4" rx="1" fill="#30363D"/>
<rect x="477" y="171" width="4" height="4" rx="1" fill="#8B949E"/>
<rect x="486" y="170" width="16" height="6" rx="2" fill="#30363D"/>
<rect x="462" y="188" width="48" height="18" rx="2" fill="#0D1117" stroke="#21262D"/>
<rect x="469" y="195" width="4" height="4" rx="1" fill="#8B949E"/>
<rect x="477" y="195" width="4" height="4" rx="1" fill="#8B949E"/>
<rect x="486" y="194" width="16" height="6" rx="2" fill="#30363D"/>
<rect x="462" y="212" width="48" height="18" rx="2" fill="#0D1117" stroke="#21262D"/>
<rect x="469" y="219" width="4" height="4" rx="1" fill="#F0F6FC"/>
<rect x="477" y="219" width="4" height="4" rx="1" fill="#F0F6FC"/>
<rect x="486" y="218" width="16" height="6" rx="2" fill="#30363D"/>
<path d="M612 96 L632 83 L632 233 L612 246 Z" fill="#0B0E13"/>
<path d="M552 96 L612 96 L632 83 L572 83 Z" fill="#232A35"/>
<rect x="552" y="96" width="60" height="150" rx="3" fill="#161B22" stroke="#30363D"/>
<rect x="560" y="102" width="44" height="5" rx="2" fill="#21262D"/>
<rect x="558" y="116" width="48" height="18" rx="2" fill="#0D1117" stroke="#21262D"/>
<rect x="565" y="123" width="4" height="4" rx="1" fill="#8B949E"/>
<rect x="582" y="122" width="16" height="6" rx="2" fill="#30363D"/>
<rect x="558" y="140" width="48" height="18" rx="2" fill="#0D1117" stroke="#21262D"/>
<rect x="565" y="147" width="4" height="4" rx="1" fill="#8B949E"/>
<rect x="573" y="147" width="4" height="4" rx="1" fill="#8B949E"/>
<rect x="582" y="146" width="16" height="6" rx="2" fill="#30363D"/>
<rect x="558" y="164" width="48" height="18" rx="2" fill="#0D1117" stroke="#21262D"/>
<rect x="565" y="171" width="4" height="4" rx="1" fill="#8B949E"/>
<rect x="582" y="170" width="16" height="6" rx="2" fill="#30363D"/>
<rect x="558" y="188" width="48" height="18" rx="2" fill="#0D1117" stroke="#21262D"/>
<rect x="565" y="195" width="4" height="4" rx="1" fill="#F0F6FC"/>
<rect x="573" y="195" width="4" height="4" rx="1" fill="#F0F6FC"/>
<rect x="582" y="194" width="16" height="6" rx="2" fill="#30363D"/>
<rect x="558" y="212" width="48" height="18" rx="2" fill="#0D1117" stroke="#21262D"/>
<rect x="565" y="219" width="4" height="4" rx="1" fill="#8B949E"/>
<rect x="582" y="218" width="16" height="6" rx="2" fill="#30363D"/>
<path d="M708 96 L728 83 L728 233 L708 246 Z" fill="#0B0E13"/>
<path d="M648 96 L708 96 L728 83 L668 83 Z" fill="#232A35"/>
<rect x="648" y="96" width="60" height="150" rx="3" fill="#161B22" stroke="#30363D"/>
<rect x="656" y="102" width="44" height="5" rx="2" fill="#21262D"/>
<rect x="654" y="116" width="48" height="18" rx="2" fill="#0D1117" stroke="#21262D"/>
<rect x="661" y="123" width="4" height="4" rx="1" fill="#8B949E"/>
<rect x="669" y="123" width="4" height="4" rx="1" fill="#8B949E"/>
<rect x="678" y="122" width="16" height="6" rx="2" fill="#30363D"/>
<rect x="654" y="140" width="48" height="18" rx="2" fill="#0D1117" stroke="#21262D"/>
<rect x="661" y="147" width="4" height="4" rx="1" fill="#8B949E"/>
<rect x="678" y="146" width="16" height="6" rx="2" fill="#30363D"/>
<rect x="654" y="164" width="48" height="18" rx="2" fill="#0D1117" stroke="#21262D"/>
<rect x="661" y="171" width="4" height="4" rx="1" fill="#30363D"/>
<rect x="669" y="171" width="4" height="4" rx="1" fill="#8B949E"/>
<rect x="678" y="170" width="16" height="6" rx="2" fill="#30363D"/>
<rect x="654" y="188" width="48" height="18" rx="2" fill="#0D1117" stroke="#21262D"/>
<rect x="661" y="195" width="4" height="4" rx="1" fill="#F0F6FC"/>
<rect x="678" y="194" width="16" height="6" rx="2" fill="#30363D"/>
<rect x="654" y="212" width="48" height="18" rx="2" fill="#0D1117" stroke="#21262D"/>
<rect x="661" y="219" width="4" height="4" rx="1" fill="#8B949E"/>
<rect x="678" y="218" width="16" height="6" rx="2" fill="#30363D"/>
<path d="M804 96 L824 83 L824 233 L804 246 Z" fill="#0B0E13"/>
<path d="M744 96 L804 96 L824 83 L764 83 Z" fill="#232A35"/>
<rect x="744" y="96" width="60" height="150" rx="3" fill="#161B22" stroke="#30363D"/>
<rect x="752" y="102" width="44" height="5" rx="2" fill="#21262D"/>
<rect x="750" y="116" width="48" height="18" rx="2" fill="#0D1117" stroke="#21262D"/>
<rect x="757" y="123" width="4" height="4" rx="1" fill="#8B949E"/>
<rect x="765" y="123" width="4" height="4" rx="1" fill="#30363D"/>
<rect x="774" y="122" width="16" height="6" rx="2" fill="#30363D"/>
<rect x="750" y="140" width="48" height="18" rx="2" fill="#0D1117" stroke="#21262D"/>
<rect x="757" y="147" width="4" height="4" rx="1" fill="#F0F6FC"/>
<rect x="765" y="147" width="4" height="4" rx="1" fill="#F0F6FC"/>
<rect x="774" y="146" width="16" height="6" rx="2" fill="#30363D"/>
<rect x="750" y="164" width="48" height="18" rx="2" fill="#0D1117" stroke="#21262D"/>
<rect x="757" y="171" width="4" height="4" rx="1" fill="#8B949E"/>
<rect x="774" y="170" width="16" height="6" rx="2" fill="#30363D"/>
<rect x="750" y="188" width="48" height="18" rx="2" fill="#0D1117" stroke="#21262D"/>
<rect x="757" y="195" width="4" height="4" rx="1" fill="#8B949E"/>
<rect x="765" y="195" width="4" height="4" rx="1" fill="#F0F6FC"/>
<rect x="774" y="194" width="16" height="6" rx="2" fill="#30363D"/>
<rect x="750" y="212" width="48" height="18" rx="2" fill="#0D1117" stroke="#21262D"/>
<rect x="757" y="219" width="4" height="4" rx="1" fill="#F0F6FC"/>
<rect x="765" y="219" width="4" height="4" rx="1" fill="#8B949E"/>
<rect x="774" y="218" width="16" height="6" rx="2" fill="#30363D"/>
<path d="M900 96 L920 83 L920 233 L900 246 Z" fill="#0B0E13"/>
<path d="M840 96 L900 96 L920 83 L860 83 Z" fill="#232A35"/>
<rect x="840" y="96" width="60" height="150" rx="3" fill="#161B22" stroke="#30363D"/>
<rect x="848" y="102" width="44" height="5" rx="2" fill="#21262D"/>
<rect x="846" y="116" width="48" height="18" rx="2" fill="#0D1117" stroke="#21262D"/>
<rect x="853" y="123" width="4" height="4" rx="1" fill="#F0F6FC"/>
<rect x="861" y="123" width="4" height="4" rx="1" fill="#8B949E"/>
<rect x="870" y="122" width="16" height="6" rx="2" fill="#30363D"/>
<rect x="846" y="140" width="48" height="18" rx="2" fill="#0D1117" stroke="#21262D"/>
<rect x="853" y="147" width="4" height="4" rx="1" fill="#30363D"/>
<rect x="861" y="147" width="4" height="4" rx="1" fill="#F0F6FC"/>
<rect x="870" y="146" width="16" height="6" rx="2" fill="#30363D"/>
<rect x="846" y="164" width="48" height="18" rx="2" fill="#0D1117" stroke="#21262D"/>
<rect x="853" y="171" width="4" height="4" rx="1" fill="#8B949E"/>
<rect x="870" y="170" width="16" height="6" rx="2" fill="#30363D"/>
<rect x="846" y="188" width="48" height="18" rx="2" fill="#0D1117" stroke="#21262D"/>
<rect x="853" y="195" width="4" height="4" rx="1" fill="#F0F6FC"/>
<rect x="870" y="194" width="16" height="6" rx="2" fill="#30363D"/>
<rect x="846" y="212" width="48" height="18" rx="2" fill="#0D1117" stroke="#21262D"/>
<rect x="853" y="219" width="4" height="4" rx="1" fill="#F0F6FC"/>
<rect x="861" y="219" width="4" height="4" rx="1" fill="#8B949E"/>
<rect x="870" y="218" width="16" height="6" rx="2" fill="#30363D"/>
<path d="M996 96 L1016 83 L1016 233 L996 246 Z" fill="#0B0E13"/>
<path d="M936 96 L996 96 L1016 83 L956 83 Z" fill="#232A35"/>
<rect x="936" y="96" width="60" height="150" rx="3" fill="#161B22" stroke="#30363D"/>
<rect x="944" y="102" width="44" height="5" rx="2" fill="#21262D"/>
<rect x="942" y="116" width="48" height="18" rx="2" fill="#0D1117" stroke="#21262D"/>
<rect x="949" y="123" width="4" height="4" rx="1" fill="#8B949E"/>
<rect x="957" y="123" width="4" height="4" rx="1" fill="#30363D"/>
<rect x="966" y="122" width="16" height="6" rx="2" fill="#30363D"/>
<rect x="942" y="140" width="48" height="18" rx="2" fill="#0D1117" stroke="#21262D"/>
<rect x="949" y="147" width="4" height="4" rx="1" fill="#8B949E"/>
<rect x="966" y="146" width="16" height="6" rx="2" fill="#30363D"/>
<rect x="942" y="164" width="48" height="18" rx="2" fill="#0D1117" stroke="#21262D"/>
<rect x="949" y="171" width="4" height="4" rx="1" fill="#F0F6FC"/>
<rect x="957" y="171" width="4" height="4" rx="1" fill="#8B949E"/>
<rect x="966" y="170" width="16" height="6" rx="2" fill="#30363D"/>
<rect x="942" y="188" width="48" height="18" rx="2" fill="#0D1117" stroke="#21262D"/>
<rect x="949" y="195" width="4" height="4" rx="1" fill="#F0F6FC"/>
<rect x="966" y="194" width="16" height="6" rx="2" fill="#30363D"/>
<rect x="942" y="212" width="48" height="18" rx="2" fill="#0D1117" stroke="#21262D"/>
<rect x="949" y="219" width="4" height="4" rx="1" fill="#8B949E"/>
<rect x="957" y="219" width="4" height="4" rx="1" fill="#30363D"/>
<rect x="966" y="218" width="16" height="6" rx="2" fill="#30363D"/>
<path d="M1092 96 L1112 83 L1112 233 L1092 246 Z" fill="#0B0E13"/>
<path d="M1032 96 L1092 96 L1112 83 L1052 83 Z" fill="#232A35"/>
<rect x="1032" y="96" width="60" height="150" rx="3" fill="#161B22" stroke="#30363D"/>
<rect x="1040" y="102" width="44" height="5" rx="2" fill="#21262D"/>
<rect x="1038" y="116" width="48" height="18" rx="2" fill="#0D1117" stroke="#21262D"/>
<rect x="1045" y="123" width="4" height="4" rx="1" fill="#F0F6FC"/>
<rect x="1062" y="122" width="16" height="6" rx="2" fill="#30363D"/>
<rect x="1038" y="140" width="48" height="18" rx="2" fill="#0D1117" stroke="#21262D"/>
<rect x="1045" y="147" width="4" height="4" rx="1" fill="#8B949E"/>
<rect x="1053" y="147" width="4" height="4" rx="1" fill="#F0F6FC"/>
<rect x="1062" y="146" width="16" height="6" rx="2" fill="#30363D"/>
<rect x="1038" y="164" width="48" height="18" rx="2" fill="#0D1117" stroke="#21262D"/>
<rect x="1045" y="171" width="4" height="4" rx="1" fill="#F0F6FC"/>
<rect x="1062" y="170" width="16" height="6" rx="2" fill="#30363D"/>
<rect x="1038" y="188" width="48" height="18" rx="2" fill="#0D1117" stroke="#21262D"/>
<rect x="1045" y="195" width="4" height="4" rx="1" fill="#F0F6FC"/>
<rect x="1053" y="195" width="4" height="4" rx="1" fill="#8B949E"/>
<rect x="1062" y="194" width="16" height="6" rx="2" fill="#30363D"/>
<rect x="1038" y="212" width="48" height="18" rx="2" fill="#0D1117" stroke="#21262D"/>
<rect x="1045" y="219" width="4" height="4" rx="1" fill="#8B949E"/>
<rect x="1053" y="219" width="4" height="4" rx="1" fill="#F0F6FC"/>
<rect x="1062" y="218" width="16" height="6" rx="2" fill="#30363D"/>
</svg>