<svg width="1280" height="360" viewBox="0 0 1280 360" fill="none" xmlns="http://www.w3.org/2000/svg" role="img" aria-labelledby="title desc">
<title id="title">Wardlexy profile banner</title>
<desc id="desc">A dark minimalist data-center banner with blinking server racks in black, white, and grey.</desc>
<rect width="1280" height="360" fill="#0D1117"/>
<rect x="40" y="40" width="1200" height="280" rx="18" fill="#111111" stroke="#30363D"/>
<rect x="-260" y="40" width="220" height="280" rx="18" fill="#F0F6FC" opacity="0.035"><animate attributeName="x" values="-260;1320" dur="7s" repeatCount="indefinite"/></rect>
<path d="M80 108H520" stroke="#21262D" stroke-width="1"/>
<path d="M80 252H1200" stroke="#30363D" stroke-width="1"/>
<circle cx="105" cy="76" r="6" fill="#F0F6FC"><animate attributeName="opacity" values="1;0.35;1" dur="2.8s" repeatCount="indefinite"/></circle>
<circle cx="127" cy="76" r="6" fill="#8B949E"><animate attributeName="opacity" values="0.35;1;0.35" dur="2.8s" begin="0.35s" repeatCount="indefinite"/></circle>
<circle cx="149" cy="76" r="6" fill="#30363D"><animate attributeName="opacity" values="0.55;1;0.55" dur="2.8s" begin="0.7s" repeatCount="indefinite"/></circle>
<text x="80" y="286" fill="#8B949E" font-family="Consolas, Monaco, 'Courier New', monospace" font-size="16" letter-spacing="2">PROFILE / README</text>
<text x="80" y="132" fill="#F0F6FC" font-family="Inter, Arial, sans-serif" font-size="72" font-weight="700">Wardlexy</text>
<text x="84" y="176" fill="#8B949E" font-family="Consolas, Monaco, 'Courier New', monospace" font-size="22">steady progress.</text>
<g transform="translate(600 0)">
<rect x="55" y="108" width="6" height="142" rx="2" fill="#0A0D12"/>
<rect x="0" y="104" width="56" height="146" rx="5" fill="#161B22" stroke="#30363D"/>
<rect x="8" y="110" width="40" height="6" rx="2" fill="#21262D"/>
<rect x="6" y="122" width="44" height="20" rx="2" fill="#0D1117" stroke="#21262D"/>
<circle cx="14" cy="132" r="2.4" fill="#30363D"><animate attributeName="opacity" values="0.4;0.8;0.4" dur="2.4s" begin="0.1s" repeatCount="indefinite"/></circle>
<circle cx="23" cy="132" r="2.4" fill="#30363D"><animate attributeName="opacity" values="0.4;0.8;0.4" dur="1.9s" begin="1.4s" repeatCount="indefinite"/></circle>
<rect x="30" y="129" width="16" height="6" rx="2" fill="#30363D"/>
<rect x="6" y="147" width="44" height="20" rx="2" fill="#0D1117" stroke="#21262D"/>
<circle cx="14" cy="157" r="2.4" fill="#F0F6FC"><animate attributeName="opacity" values="0.25;1;0.25" dur="1.9s" begin="1.0s" repeatCount="indefinite"/></circle>
<circle cx="23" cy="157" r="2.4" fill="#F0F6FC"><animate attributeName="opacity" values="0.25;1;0.25" dur="2.6s" begin="0.1s" repeatCount="indefinite"/></circle>
<rect x="30" y="154" width="16" height="6" rx="2" fill="#30363D"/>
<rect x="6" y="172" width="44" height="20" rx="2" fill="#0D1117" stroke="#21262D"/>
<circle cx="14" cy="182" r="2.4" fill="#F0F6FC"><animate attributeName="opacity" values="0.25;1;0.25" dur="2.1s" begin="1.5s" repeatCount="indefinite"/></circle>
<circle cx="23" cy="182" r="2.4" fill="#30363D"><animate attributeName="opacity" values="0.4;0.8;0.4" dur="2.6s" begin="1.0s" repeatCount="indefinite"/></circle>
<rect x="30" y="179" width="16" height="6" rx="2" fill="#30363D"/>
<rect x="6" y="197" width="44" height="20" rx="2" fill="#0D1117" stroke="#21262D"/>
<circle cx="14" cy="207" r="2.4" fill="#F0F6FC"><animate attributeName="opacity" values="0.25;1;0.25" dur="3.0s" begin="0.7s" repeatCount="indefinite"/></circle>
<rect x="30" y="204" width="16" height="6" rx="2" fill="#30363D"/>
<rect x="6" y="222" width="44" height="20" rx="2" fill="#0D1117" stroke="#21262D"/>
<circle cx="14" cy="232" r="2.4" fill="#8B949E"><animate attributeName="opacity" values="0.55;1;0.55" dur="2.6s" begin="1.3s" repeatCount="indefinite"/></circle>
<rect x="30" y="229" width="16" height="6" rx="2" fill="#30363D"/>
</g>
<g transform="translate(682 0)">
<rect x="55" y="108" width="6" height="142" rx="2" fill="#0A0D12"/>
<rect x="0" y="104" width="56" height="146" rx="5" fill="#161B22" stroke="#30363D"/>
<rect x="8" y="110" width="40" height="6" rx="2" fill="#21262D"/>
<rect x="6" y="122" width="44" height="20" rx="2" fill="#0D1117" stroke="#21262D"/>
<circle cx="14" cy="132" r="2.4" fill="#F0F6FC"><animate attributeName="opacity" values="0.25;1;0.25" dur="2.6s" begin="1.5s" repeatCount="indefinite"/></circle>
<circle cx="23" cy="132" r="2.4" fill="#8B949E"><animate attributeName="opacity" values="0.55;1;0.55" dur="2.6s" begin="0.2s" repeatCount="indefinite"/></circle>
<rect x="30" y="129" width="16" height="6" rx="2" fill="#30363D"/>
<rect x="6" y="147" width="44" height="20" rx="2" fill="#0D1117" stroke="#21262D"/>
<circle cx="14" cy="157" r="2.4" fill="#8B949E"><animate attributeName="opacity" values="0.55;1;0.55" dur="2.5s" begin="1.3s" repeatCount="indefinite"/></circle>
<rect x="30" y="154" width="16" height="6" rx="2" fill="#30363D"/>
<rect x="6" y="172" width="44" height="20" rx="2" fill="#0D1117" stroke="#21262D"/>
<circle cx="14" cy="182" r="2.4" fill="#8B949E"><animate attributeName="opacity" values="0.55;1;0.55" dur="3.1s" begin="0.9s" repeatCount="indefinite"/></circle>
<circle cx="23" cy="182" r="2.4" fill="#F0F6FC"><animate attributeName="opacity" values="0.25;1;0.25" dur="2.1s" begin="1.9s" repeatCount="indefinite"/></circle>
<rect x="30" y="179" width="16" height="6" rx="2" fill="#30363D"/>
<rect x="6" y="197" width="44" height="20" rx="2" fill="#0D1117" stroke="#21262D"/>
<circle cx="14" cy="207" r="2.4" fill="#8B949E"><animate attributeName="opacity" values="0.55;1;0.55" dur="2.5s" begin="2.1s" repeatCount="indefinite"/></circle>
<rect x="30" y="204" width="16" height="6" rx="2" fill="#30363D"/>
<rect x="6" y="222" width="44" height="20" rx="2" fill="#0D1117" stroke="#21262D"/>
<circle cx="14" cy="232" r="2.4" fill="#8B949E"><animate attributeName="opacity" values="0.55;1;0.55" dur="2.7s" begin="0.2s" repeatCount="indefinite"/></circle>
<circle cx="23" cy="232" r="2.4" fill="#8B949E"><animate attributeName="opacity" values="0.55;1;0.55" dur="2.0s" begin="0.8s" repeatCount="indefinite"/></circle>
<rect x="30" y="229" width="16" height="6" rx="2" fill="#30363D"/>
</g>
<g transform="translate(764 0)">
<rect x="55" y="108" width="6" height="142" rx="2" fill="#0A0D12"/>
<rect x="0" y="104" width="56" height="146" rx="5" fill="#161B22" stroke="#30363D"/>
<rect x="8" y="110" width="40" height="6" rx="2" fill="#21262D"/>
<rect x="6" y="122" width="44" height="20" rx="2" fill="#0D1117" stroke="#21262D"/>
<circle cx="14" cy="132" r="2.4" fill="#8B949E"><animate attributeName="opacity" values="0.55;1;0.55" dur="3.1s" begin="0.2s" repeatCount="indefinite"/></circle>
<circle cx="23" cy="132" r="2.4" fill="#8B949E"><animate attributeName="opacity" values="0.55;1;0.55" dur="2.9s" begin="2.0s" repeatCount="indefinite"/></circle>
<rect x="30" y="129" width="16" height="6" rx="2" fill="#30363D"/>
<rect x="6" y="147" width="44" height="20" rx="2" fill="#0D1117" stroke="#21262D"/>
<circle cx="14" cy="157" r="2.4" fill="#30363D"><animate attributeName="opacity" values="0.4;0.8;0.4" dur="2.6s" begin="1.4s" repeatCount="indefinite"/></circle>
<circle cx="23" cy="157" r="2.4" fill="#8B949E"><animate attributeName="opacity" values="0.55;1;0.55" dur="3.0s" begin="2.3s" repeatCount="indefinite"/></circle>
<rect x="30" y="154" width="16" height="6" rx="2" fill="#30363D"/>
<rect x="6" y="172" width="44" height="20" rx="2" fill="#0D1117" stroke="#21262D"/>
<circle cx="14" cy="182" r="2.4" fill="#30363D"><animate attributeName="opacity" values="0.4;0.8;0.4" dur="1.9s" begin="1.8s" repeatCount="indefinite"/></circle>
<circle cx="23" cy="182" r="2.4" fill="#8B949E"><animate attributeName="opacity" values="0.55;1;0.55" dur="2.6s" begin="1.6s" repeatCount="indefinite"/></circle>
<rect x="30" y="179" width="16" height="6" rx="2" fill="#30363D"/>
<rect x="6" y="197" width="44" height="20" rx="2" fill="#0D1117" stroke="#21262D"/>
<circle cx="14" cy="207" r="2.4" fill="#8B949E"><animate attributeName="opacity" values="0.55;1;0.55" dur="2.3s" begin="1.6s" repeatCount="indefinite"/></circle>
<circle cx="23" cy="207" r="2.4" fill="#F0F6FC"><animate attributeName="opacity" values="0.25;1;0.25" dur="2.4s" begin="0.4s" repeatCount="indefinite"/></circle>
<rect x="30" y="204" width="16" height="6" rx="2" fill="#30363D"/>
<rect x="6" y="222" width="44" height="20" rx="2" fill="#0D1117" stroke="#21262D"/>
<circle cx="14" cy="232" r="2.4" fill="#8B949E"><animate attributeName="opacity" values="0.55;1;0.55" dur="2.1s" begin="0.7s" repeatCount="indefinite"/></circle>
<rect x="30" y="229" width="16" height="6" rx="2" fill="#30363D"/>
</g>
<g transform="translate(846 0)">
<rect x="55" y="108" width="6" height="142" rx="2" fill="#0A0D12"/>
<rect x="0" y="104" width="56" height="146" rx="5" fill="#161B22" stroke="#30363D"/>
<rect x="8" y="110" width="40" height="6" rx="2" fill="#21262D"/>
<rect x="6" y="122" width="44" height="20" rx="2" fill="#0D1117" stroke="#21262D"/>
<circle cx="14" cy="132" r="2.4" fill="#F0F6FC"><animate attributeName="opacity" values="0.25;1;0.25" dur="2.3s" begin="2.1s" repeatCount="indefinite"/></circle>
<circle cx="23" cy="132" r="2.4" fill="#F0F6FC"><animate attributeName="opacity" values="0.25;1;0.25" dur="2.4s" begin="1.3s" repeatCount="indefinite"/></circle>
<rect x="30" y="129" width="16" height="6" rx="2" fill="#30363D"/>
<rect x="6" y="147" width="44" height="20" rx="2" fill="#0D1117" stroke="#21262D"/>
<circle cx="14" cy="157" r="2.4" fill="#30363D"><animate attributeName="opacity" values="0.4;0.8;0.4" dur="3.0s" begin="0.7s" repeatCount="indefinite"/></circle>
<rect x="30" y="154" width="16" height="6" rx="2" fill="#30363D"/>
<rect x="6" y="172" width="44" height="20" rx="2" fill="#0D1117" stroke="#21262D"/>
<circle cx="14" cy="182" r="2.4" fill="#30363D"><animate attributeName="opacity" values="0.4;0.8;0.4" dur="2.8s" begin="0.9s" repeatCount="indefinite"/></circle>
<circle cx="23" cy="182" r="2.4" fill="#F0F6FC"><animate attributeName="opacity" values="0.25;1;0.25" dur="1.9s" begin="0.4s" repeatCount="indefinite"/></circle>
<rect x="30" y="179" width="16" height="6" rx="2" fill="#30363D"/>
<rect x="6" y="197" width="44" height="20" rx="2" fill="#0D1117" stroke="#21262D"/>
<circle cx="14" cy="207" r="2.4" fill="#F0F6FC"><animate attributeName="opacity" values="0.25;1;0.25" dur="2.5s" begin="1.4s" repeatCount="indefinite"/></circle>
<circle cx="23" cy="207" r="2.4" fill="#8B949E"><animate attributeName="opacity" values="0.55;1;0.55" dur="1.8s" begin="1.0s" repeatCount="indefinite"/></circle>
<rect x="30" y="204" width="16" height="6" rx="2" fill="#30363D"/>
<rect x="6" y="222" width="44" height="20" rx="2" fill="#0D1117" stroke="#21262D"/>
<circle cx="14" cy="232" r="2.4" fill="#8B949E"><animate attributeName="opacity" values="0.55;1;0.55" dur="2.2s" begin="0.3s" repeatCount="indefinite"/></circle>
<circle cx="23" cy="232" r="2.4" fill="#30363D"><animate attributeName="opacity" values="0.4;0.8;0.4" dur="3.1s" begin="1.6s" repeatCount="indefinite"/></circle>
<rect x="30" y="229" width="16" height="6" rx="2" fill="#30363D"/>
</g>
<g transform="translate(928 0)">
<rect x="55" y="108" width="6" height="142" rx="2" fill="#0A0D12"/>
<rect x="0" y="104" width="56" height="146" rx="5" fill="#161B22" stroke="#30363D"/>
<rect x="8" y="110" width="40" height="6" rx="2" fill="#21262D"/>
<rect x="6" y="122" width="44" height="20" rx="2" fill="#0D1117" stroke="#21262D"/>
<circle cx="14" cy="132" r="2.4" fill="#F0F6FC"><animate attributeName="opacity" values="0.25;1;0.25" dur="3.1s" begin="1.9s" repeatCount="indefinite"/></circle>
<circle cx="23" cy="132" r="2.4" fill="#30363D"><animate attributeName="opacity" values="0.4;0.8;0.4" dur="2.9s" begin="0.9s" repeatCount="indefinite"/></circle>
<rect x="30" y="129" width="16" height="6" rx="2" fill="#30363D"/>
<rect x="6" y="147" width="44" height="20" rx="2" fill="#0D1117" stroke="#21262D"/>
<circle cx="14" cy="157" r="2.4" fill="#8B949E"><animate attributeName="opacity" values="0.55;1;0.55" dur="2.5s" begin="1.0s" repeatCount="indefinite"/></circle>
<circle cx="23" cy="157" r="2.4" fill="#F0F6FC"><animate attributeName="opacity" values="0.25;1;0.25" dur="3.2s" begin="1.1s" repeatCount="indefinite"/></circle>
<rect x="30" y="154" width="16" height="6" rx="2" fill="#30363D"/>
<rect x="6" y="172" width="44" height="20" rx="2" fill="#0D1117" stroke="#21262D"/>
<circle cx="14" cy="182" r="2.4" fill="#8B949E"><animate attributeName="opacity" values="0.55;1;0.55" dur="1.9s" begin="0.0s" repeatCount="indefinite"/></circle>
<rect x="30" y="179" width="16" height="6" rx="2" fill="#30363D"/>
<rect x="6" y="197" width="44" height="20" rx="2" fill="#0D1117" stroke="#21262D"/>
<circle cx="14" cy="207" r="2.4" fill="#8B949E"><animate attributeName="opacity" values="0.55;1;0.55" dur="3.1s" begin="1.5s" repeatCount="indefinite"/></circle>
<rect x="30" y="204" width="16" height="6" rx="2" fill="#30363D"/>
<rect x="6" y="222" width="44" height="20" rx="2" fill="#0D1117" stroke="#21262D"/>
<circle cx="14" cy="232" r="2.4" fill="#30363D"><animate attributeName="opacity" values="0.4;0.8;0.4" dur="2.7s" begin="0.4s" repeatCount="indefinite"/></circle>
<rect x="30" y="229" width="16" height="6" rx="2" fill="#30363D"/>
</g>
<g transform="translate(1010 0)">
<rect x="55" y="108" width="6" height="142" rx="2" fill="#0A0D12"/>
<rect x="0" y="104" width="56" height="146" rx="5" fill="#161B22" stroke="#30363D"/>
<rect x="8" y="110" width="40" height="6" rx="2" fill="#21262D"/>
<rect x="6" y="122" width="44" height="20" rx="2" fill="#0D1117" stroke="#21262D"/>
<circle cx="14" cy="132" r="2.4" fill="#30363D"><animate attributeName="opacity" values="0.4;0.8;0.4" dur="2.6s" begin="1.1s" repeatCount="indefinite"/></circle>
<circle cx="23" cy="132" r="2.4" fill="#F0F6FC"><animate attributeName="opacity" values="0.25;1;0.25" dur="2.5s" begin="2.3s" repeatCount="indefinite"/></circle>
<rect x="30" y="129" width="16" height="6" rx="2" fill="#30363D"/>
<rect x="6" y="147" width="44" height="20" rx="2" fill="#0D1117" stroke="#21262D"/>
<circle cx="14" cy="157" r="2.4" fill="#8B949E"><animate attributeName="opacity" values="0.55;1;0.55" dur="1.9s" begin="0.2s" repeatCount="indefinite"/></circle>
<circle cx="23" cy="157" r="2.4" fill="#8B949E"><animate attributeName="opacity" values="0.55;1;0.55" dur="2.2s" begin="2.0s" repeatCount="indefinite"/></circle>
<rect x="30" y="154" width="16" height="6" rx="2" fill="#30363D"/>
<rect x="6" y="172" width="44" height="20" rx="2" fill="#0D1117" stroke="#21262D"/>
<circle cx="14" cy="182" r="2.4" fill="#8B949E"><animate attributeName="opacity" values="0.55;1;0.55" dur="2.1s" begin="2.3s" repeatCount="indefinite"/></circle>
<rect x="30" y="179" width="16" height="6" rx="2" fill="#30363D"/>
<rect x="6" y="197" width="44" height="20" rx="2" fill="#0D1117" stroke="#21262D"/>
<circle cx="14" cy="207" r="2.4" fill="#F0F6FC"><animate attributeName="opacity" values="0.25;1;0.25" dur="2.6s" begin="0.1s" repeatCount="indefinite"/></circle>
<circle cx="23" cy="207" r="2.4" fill="#8B949E"><animate attributeName="opacity" values="0.55;1;0.55" dur="3.2s" begin="2.1s" repeatCount="indefinite"/></circle>
<rect x="30" y="204" width="16" height="6" rx="2" fill="#30363D"/>
<rect x="6" y="222" width="44" height="20" rx="2" fill="#0D1117" stroke="#21262D"/>
<circle cx="14" cy="232" r="2.4" fill="#30363D"><animate attributeName="opacity" values="0.4;0.8;0.4" dur="2.5s" begin="2.2s" repeatCount="indefinite"/></circle>
<circle cx="23" cy="232" r="2.4" fill="#8B949E"><animate attributeName="opacity" values="0.55;1;0.55" dur="2.1s" begin="1.3s" repeatCount="indefinite"/></circle>
<rect x="30" y="229" width="16" height="6" rx="2" fill="#30363D"/>
</g>
<g transform="translate(1092 0)">
<rect x="55" y="108" width="6" height="142" rx="2" fill="#0A0D12"/>
<rect x="0" y="104" width="56" height="146" rx="5" fill="#161B22" stroke="#30363D"/>
<rect x="8" y="110" width="40" height="6" rx="2" fill="#21262D"/>
<rect x="6" y="122" width="44" height="20" rx="2" fill="#0D1117" stroke="#21262D"/>
<circle cx="14" cy="132" r="2.4" fill="#8B949E"><animate attributeName="opacity" values="0.55;1;0.55" dur="2.1s" begin="1.9s" repeatCount="indefinite"/></circle>
<circle cx="23" cy="132" r="2.4" fill="#30363D"><animate attributeName="opacity" values="0.4;0.8;0.4" dur="3.0s" begin="1.9s" repeatCount="indefinite"/></circle>
<rect x="30" y="129" width="16" height="6" rx="2" fill="#30363D"/>
<rect x="6" y="147" width="44" height="20" rx="2" fill="#0D1117" stroke="#21262D"/>
<circle cx="14" cy="157" r="2.4" fill="#30363D"><animate attributeName="opacity" values="0.4;0.8;0.4" dur="2.1s" begin="1.2s" repeatCount="indefinite"/></circle>
<circle cx="23" cy="157" r="2.4" fill="#8B949E"><animate attributeName="opacity" values="0.55;1;0.55" dur="1.8s" begin="0.1s" repeatCount="indefinite"/></circle>
<rect x="30" y="154" width="16" height="6" rx="2" fill="#30363D"/>
<rect x="6" y="172" width="44" height="20" rx="2" fill="#0D1117" stroke="#21262D"/>
<circle cx="14" cy="182" r="2.4" fill="#8B949E"><animate attributeName="opacity" values="0.55;1;0.55" dur="2.1s" begin="1.5s" repeatCount="indefinite"/></circle>
<circle cx="23" cy="182" r="2.4" fill="#8B949E"><animate attributeName="opacity" values="0.55;1;0.55" dur="2.9s" begin="1.7s" repeatCount="indefinite"/></circle>
<rect x="30" y="179" width="16" height="6" rx="2" fill="#30363D"/>
<rect x="6" y="197" width="44" height="20" rx="2" fill="#0D1117" stroke="#21262D"/>
<circle cx="14" cy="207" r="2.4" fill="#30363D"><animate attributeName="opacity" values="0.4;0.8;0.4" dur="2.3s" begin="0.5s" repeatCount="indefinite"/></circle>
<circle cx="23" cy="207" r="2.4" fill="#F0F6FC"><animate attributeName="opacity" values="0.25;1;0.25" dur="2.1s" begin="0.5s" repeatCount="indefinite"/></circle>
<rect x="30" y="204" width="16" height="6" rx="2" fill="#30363D"/>
<rect x="6" y="222" width="44" height="20" rx="2" fill="#0D1117" stroke="#21262D"/>
<circle cx="14" cy="232" r="2.4" fill="#30363D"><animate attributeName="opacity" values="0.4;0.8;0.4" dur="2.7s" begin="0.0s" repeatCount="indefinite"/></circle>
<circle cx="23" cy="232" r="2.4" fill="#30363D"><animate attributeName="opacity" values="0.4;0.8;0.4" dur="2.3s" begin="1.5s" repeatCount="indefinite"/></circle>
<rect x="30" y="229" width="16" height="6" rx="2" fill="#30363D"/>
</g>
<circle cx="0" cy="252" r="2.5" fill="#F0F6FC" opacity="0.7"><animate attributeName="cx" values="600;1160" dur="6s" begin="0.0s" repeatCount="indefinite"/><animate attributeName="opacity" values="0;0.7;0.7;0" dur="6s" begin="0.0s" repeatCount="indefinite"/></circle>
<circle cx="0" cy="252" r="2.5" fill="#F0F6FC" opacity="0.7"><animate attributeName="cx" values="600;1160" dur="6s" begin="2.0s" repeatCount="indefinite"/><animate attributeName="opacity" values="0;0.7;0.7;0" dur="6s" begin="2.0s" repeatCount="indefinite"/></circle>
<circle cx="0" cy="252" r="2.5" fill="#F0F6FC" opacity="0.7"><animate attributeName="cx" values="600;1160" dur="6s" begin="4.0s" repeatCount="indefinite"/><animate attributeName="opacity" values="0;0.7;0.7;0" dur="6s" begin="4.0s" repeatCount="indefinite"/></circle>
</svg>